<?xml version="1.0" encoding="UTF-8"?>
<svg id="Lag_1" data-name="Lag 1" xmlns="http://www.w3.org/2000/svg" viewBox="0 0 267.85 242.38">
  <defs>
    <style>
      .cls-1 {
        fill: #fff;
      }

      .cls-1, .cls-2 {
        stroke: #1d1d1b;
        stroke-miterlimit: 10;
      }

      .cls-2 {
        fill: #1d1d1b;
      }
    </style>
  </defs>
  <circle class="cls-1" cx="147.04" cy="120.81" r="120.31"/>
  <g>
    <circle class="cls-2" cx="120.81" cy="120.65" r="108.3"/>
    <path class="cls-1" d="m120.81,1.25C54.36,1.25.5,55.12.5,121.56s53.86,120.32,120.31,120.32,120.32-53.87,120.32-120.32S187.26,1.25,120.81,1.25Zm11.74,26.97c0-3.79,3.46-6.62,7.18-5.9,19.6,3.77,37.15,13.32,50.79,26.78,2.68,2.64,2.31,7.06-.77,9.21l-48.57,34.01c-.68.47-1.56.46-2.25,0-1.62-1.07-3.34-2.01-5.14-2.78-.75-.31-1.24-1.02-1.24-1.83V28.22Zm-81.44,20.87c13.66-13.46,31.2-23,50.79-26.77,3.72-.71,7.18,2.11,7.18,5.9v59.51c0,.81-.49,1.51-1.23,1.83-1.81.77-3.53,1.7-5.15,2.78-.68.46-1.57.46-2.25,0l-48.58-34.01c-3.08-2.15-3.44-6.58-.76-9.22Zm-20.66,112.08c-5.76-12.58-8.97-26.57-8.97-41.32s2.94-27.48,8.23-39.63c1.52-3.48,5.85-4.69,8.96-2.51l48.93,34.26c.65.45.94,1.23.8,2-.35,1.91-.53,3.87-.53,5.88,0,2.62.3,5.16.89,7.6.2.81-.09,1.64-.77,2.11l-48.6,34.03c-3.08,2.16-7.36.99-8.93-2.43Zm78.63,50.31c0,3.78-3.45,6.62-7.16,5.9-18.98-3.65-36.03-12.69-49.49-25.48-2.76-2.61-2.42-7.1.69-9.28l48.92-34.25c.65-.46,1.48-.46,2.16-.06,1.17.68,2.39,1.3,3.64,1.84.75.31,1.24,1.02,1.24,1.83v59.51Zm80.12-19.58c-13.46,12.78-30.52,21.83-49.49,25.48-3.71.71-7.16-2.12-7.16-5.9v-59.5c0-.81.5-1.52,1.24-1.83,1.26-.53,2.47-1.15,3.64-1.84.68-.4,1.52-.4,2.17.06l48.9,34.25c3.1,2.17,3.44,6.67.7,9.28Zm13.04-28.3l-48.58-34.01c-.68-.48-.97-1.31-.78-2.11.58-2.46.88-5,.88-7.63,0-2.02-.18-3.98-.52-5.89-.14-.78.16-1.55.8-2l48.9-34.24c3.11-2.18,7.44-.97,8.96,2.52,5.29,12.14,8.23,25.54,8.23,39.62s-3.2,28.72-8.97,41.31c-1.57,3.41-5.84,4.59-8.92,2.43Z"/>
    <circle class="cls-1" cx="120.81" cy="120.65" r="16.6"/>
  </g>
</svg>