<?xml version="1.0" encoding="UTF-8"?>
<svg id="Lag_1" data-name="Lag 1" xmlns="http://www.w3.org/2000/svg" viewBox="0 0 474.99 91.06">
  <defs>
    <style>
      .cls-1 {
        fill: #fff;
        stroke-width: 0px;
      }
    </style>
  </defs>
  <g>
    <path class="cls-1" d="m49.21,71.35c-.67-.36-1.4-.54-2.13-.54s-1.41.16-2.05.49l-21.42,10.97,4.32-23.67c.27-1.46-.2-2.95-1.25-3.99l-17.05-16.98,23.85-3.21c1.47-.2,2.74-1.1,3.41-2.42l10.88-21.46,10.42,21.69c.64,1.33,1.9,2.27,3.36,2.5l23.78,3.71-17.41,16.61c-1.07,1.02-1.57,2.5-1.34,3.97l3.81,23.76-21.18-11.42h0Z"/>
    <path class="cls-1" d="m47.66,20.7l6.47,13.48c1.28,2.67,3.79,4.53,6.72,4.99l14.77,2.31-10.82,10.32c-2.14,2.04-3.14,5.01-2.67,7.93l2.37,14.76-13.16-7.1c-1.33-.72-2.8-1.08-4.27-1.08s-2.81.33-4.1.99l-13.31,6.82,2.69-14.71c.53-2.91-.4-5.9-2.5-7.99l-10.6-10.55,14.82-1.99c2.93-.39,5.48-2.21,6.82-4.85l6.76-13.34m.22-20.32l-15,29.59L0,34.39l23.51,23.41-5.96,32.63,29.53-15.12,29.2,15.75-5.26-32.75,24-22.9-32.78-5.12L47.88.38h0Z"/>
  </g>
  <path class="cls-1" d="m427.64,20.33l6.47,13.48c1.28,2.67,3.79,4.53,6.72,4.99l14.77,2.31-10.82,10.32c-2.14,2.04-3.14,5.01-2.67,7.93l2.37,14.76-13.16-7.1c-1.33-.72-2.8-1.08-4.27-1.08s-2.81.33-4.1.99l-13.31,6.82,2.69-14.71c.53-2.91-.4-5.9-2.5-7.99l-10.6-10.55,14.82-1.99c2.93-.39,5.48-2.21,6.82-4.85l6.76-13.34m.22-20.32l-15,29.59-32.88,4.42,23.51,23.41-5.96,32.63,29.53-15.12,29.2,15.75-5.26-32.75,24-22.9-32.78-5.12L427.85,0h0Z"/>
  <g>
    <path class="cls-1" d="m334.28,70.98c-.67-.36-1.4-.54-2.13-.54s-1.41.16-2.05.49l-21.42,10.97,4.32-23.67c.27-1.45-.2-2.95-1.25-3.99l-17.05-16.98,23.85-3.21c1.47-.2,2.74-1.1,3.41-2.42l10.88-21.46,10.42,21.69c.64,1.33,1.9,2.27,3.36,2.5l23.78,3.71-17.41,16.61c-1.07,1.02-1.57,2.5-1.34,3.97l3.81,23.76-21.18-11.43h0Z"/>
    <path class="cls-1" d="m332.73,20.33l6.47,13.48c1.28,2.67,3.79,4.53,6.72,4.99l14.77,2.31-10.82,10.32c-2.14,2.04-3.14,5.01-2.67,7.93l2.37,14.76-13.16-7.1c-1.33-.72-2.8-1.08-4.27-1.08s-2.81.33-4.1.99l-13.31,6.82,2.69-14.71c.53-2.91-.4-5.9-2.5-7.99l-10.6-10.55,14.82-1.99c2.93-.39,5.48-2.21,6.82-4.85l6.76-13.34m.22-20.32l-15,29.59-32.88,4.42,23.51,23.41-5.96,32.63,29.53-15.12,29.2,15.75-5.26-32.75,24-22.9-32.78-5.12L332.94,0h0Z"/>
  </g>
  <g>
    <path class="cls-1" d="m239.36,70.98c-.67-.36-1.4-.54-2.13-.54s-1.41.16-2.05.49l-21.42,10.97,4.32-23.67c.27-1.45-.2-2.95-1.25-3.99l-17.05-16.98,23.85-3.21c1.47-.2,2.74-1.1,3.41-2.42l10.88-21.46,10.42,21.69c.64,1.33,1.9,2.27,3.36,2.5l23.78,3.71-17.41,16.61c-1.07,1.02-1.57,2.5-1.34,3.97l3.81,23.76-21.18-11.43h0Z"/>
    <path class="cls-1" d="m237.81,20.33l6.47,13.48c1.28,2.67,3.79,4.53,6.72,4.99l14.77,2.31-10.82,10.32c-2.14,2.04-3.14,5.01-2.67,7.93l2.37,14.76-13.16-7.1c-1.33-.72-2.8-1.08-4.27-1.08s-2.81.33-4.1.99l-13.31,6.82,2.69-14.71c.53-2.91-.4-5.9-2.5-7.99l-10.6-10.55,14.82-1.99c2.93-.39,5.48-2.21,6.82-4.85l6.76-13.34m.22-20.32l-15,29.59-32.88,4.42,23.51,23.41-5.96,32.63,29.53-15.12,29.2,15.75-5.26-32.75,24-22.9-32.78-5.12L238.03,0h-.01Z"/>
  </g>
  <g>
    <path class="cls-1" d="m144.45,70.98c-.67-.36-1.4-.54-2.13-.54s-1.41.16-2.05.49l-21.42,10.97,4.32-23.67c.27-1.45-.2-2.95-1.25-3.99l-17.05-16.98,23.85-3.21c1.47-.2,2.74-1.1,3.41-2.42l10.88-21.46,10.42,21.69c.64,1.33,1.9,2.27,3.36,2.5l23.78,3.71-17.41,16.61c-1.07,1.02-1.57,2.5-1.34,3.97l3.81,23.76-21.18-11.43h0Z"/>
    <path class="cls-1" d="m142.9,20.33l6.47,13.48c1.28,2.67,3.79,4.53,6.72,4.99l14.77,2.31-10.82,10.32c-2.14,2.04-3.14,5.01-2.67,7.93l2.37,14.76-13.16-7.1c-1.33-.72-2.8-1.08-4.27-1.08s-2.81.33-4.1.99l-13.31,6.82,2.69-14.71c.53-2.91-.4-5.9-2.5-7.99l-10.6-10.55,14.82-1.99c2.93-.39,5.48-2.21,6.82-4.85l6.76-13.34m.22-20.32l-15,29.59-32.88,4.42,23.51,23.41-5.96,32.63,29.53-15.12,29.2,15.75-5.26-32.75,24-22.9-32.78-5.12L143.11,0h0Z"/>
  </g>
</svg>